<svg width="14" height="14" viewBox="0 0 14 14" fill="none" xmlns="http://www.w3.org/2000/svg">
<path d="M7.00016 0.333374C3.32416 0.333374 0.333496 3.32404 0.333496 7.00004C0.333496 10.676 3.32416 13.6667 7.00016 13.6667C10.6762 13.6667 13.6668 10.676 13.6668 7.00004C13.6668 3.32404 10.6762 0.333374 7.00016 0.333374ZM12.2875 6.33337H10.4448C10.3675 4.89004 9.95816 3.46671 9.25016 2.17137C10.8755 2.93204 12.0548 4.48537 12.2875 6.33337ZM7.3535 1.68471C8.0435 2.59404 8.9715 4.20471 9.10483 6.33337H5.02016C5.11283 4.60271 5.68283 2.98137 6.65416 1.68404C6.76883 1.67737 6.8835 1.66671 7.00016 1.66671C7.1195 1.66671 7.23616 1.67737 7.3535 1.68471ZM4.79216 2.15137C4.13616 3.41204 3.7575 4.84137 3.68683 6.33337H1.71283C1.9475 4.46937 3.14483 2.90471 4.79216 2.15137ZM1.71283 7.66671H3.6955C3.78616 9.25271 4.13883 10.652 4.73283 11.82C3.11616 11.056 1.94416 9.50804 1.71283 7.66671ZM6.6335 12.3154C5.6995 11.1834 5.14816 9.59737 5.0275 7.66671H9.10283C8.96416 9.51537 8.35816 11.1307 7.3675 12.3147C7.24616 12.3227 7.12483 12.3334 7.00016 12.3334C6.87616 12.3334 6.7555 12.3227 6.6335 12.3154ZM9.3075 11.8007C9.94416 10.6047 10.3328 9.20004 10.4348 7.66671H12.2868C12.0582 9.49271 10.9028 11.0314 9.3075 11.8007Z" fill="#333333"/>
</svg>
