<svg width="15" height="15" viewBox="0 0 15 15" fill="none" xmlns="http://www.w3.org/2000/svg">
<path d="M11.1993 8.94999C11.0374 9.10687 10.963 9.33374 10.9999 9.55624L11.5555 12.6312C11.6024 12.8919 11.4924 13.1556 11.2743 13.3062C11.0605 13.4625 10.7762 13.4812 10.543 13.3562L7.77491 11.9125C7.67866 11.8612 7.57179 11.8337 7.46241 11.8306H7.29304C7.23429 11.8394 7.17679 11.8581 7.12429 11.8869L4.35555 13.3375C4.21867 13.4062 4.06367 13.4306 3.9118 13.4062C3.5418 13.3362 3.29492 12.9837 3.35555 12.6119L3.9118 9.53687C3.94867 9.31249 3.8743 9.08437 3.71242 8.92499L1.45555 6.73749C1.2668 6.55437 1.20117 6.27937 1.28742 6.03125C1.37117 5.78375 1.58492 5.60313 1.84305 5.5625L4.9493 5.11187C5.18555 5.0875 5.39305 4.94375 5.4993 4.73125L6.86804 1.925C6.90054 1.8625 6.94242 1.805 6.99304 1.75625L7.04929 1.7125C7.07866 1.68 7.11241 1.65313 7.14991 1.63125L7.21804 1.60625L7.32429 1.5625H7.58741C7.82241 1.58687 8.02929 1.7275 8.13741 1.9375L9.52429 4.73125C9.62429 4.93562 9.81866 5.0775 10.043 5.11187L13.1493 5.5625C13.4118 5.6 13.6312 5.78125 13.718 6.03125C13.7999 6.28187 13.7293 6.55687 13.5368 6.73749L11.1993 8.94999Z" fill="#FBB751"/>
<mask id="mask0_1446_24024" style="mask-type:alpha" maskUnits="userSpaceOnUse" x="1" y="1" width="13" height="13">
<path d="M11.2491 8.96745C11.0872 9.12432 11.0128 9.3512 11.0497 9.5737L11.6053 12.6487C11.6522 12.9093 11.5422 13.1731 11.3241 13.3237C11.1103 13.4799 10.826 13.4987 10.5928 13.3737L7.82472 11.9299C7.72847 11.8787 7.62159 11.8512 7.51222 11.8481H7.34284C7.28409 11.8568 7.22659 11.8756 7.17409 11.9043L4.40535 13.3549C4.26848 13.4237 4.11348 13.4481 3.9616 13.4237C3.5916 13.3537 3.34473 13.0012 3.40535 12.6293L3.9616 9.55432C3.99848 9.32995 3.9241 9.10182 3.76223 8.94245L1.50535 6.75495C1.3166 6.57182 1.25098 6.29682 1.33723 6.04871C1.42098 5.80121 1.63473 5.62058 1.89285 5.57996L4.9991 5.12933C5.23535 5.10496 5.44285 4.96121 5.5491 4.74871L6.91784 1.94246C6.95034 1.87996 6.99222 1.82246 7.04284 1.77371L7.09909 1.72996C7.12847 1.69746 7.16222 1.67058 7.19972 1.64871L7.26784 1.62371L7.37409 1.57996H7.63722C7.87222 1.60433 8.07909 1.74496 8.18722 1.95496L9.57409 4.74871C9.67409 4.95308 9.86847 5.09496 10.0928 5.12933L13.1991 5.57996C13.4616 5.61746 13.681 5.79871 13.7678 6.04871C13.8497 6.29932 13.7791 6.57432 13.5866 6.75495L11.2491 8.96745Z" fill="#FBB751"/>
</mask>
<g mask="url(#mask0_1446_24024)">
<rect x="7.5498" y="-0.982544" width="7" height="16" fill="#D3D5D9"/>
</g>
</svg>
