<svg width="76" height="17" viewBox="0 0 76 17" fill="none" xmlns="http://www.w3.org/2000/svg">
<path d="M2.924 13V5.187H1.065L2.157 3.77H4.354V13H2.924ZM9.18614 13.13C8.34547 13.13 7.60881 12.8657 6.97614 12.337C6.34347 11.8083 6.01847 11.167 6.00114 10.413H7.47014C7.56547 10.803 7.76914 11.1193 8.08114 11.362C8.40181 11.6047 8.77014 11.726 9.18614 11.726C9.69747 11.726 10.1135 11.5613 10.4341 11.232C10.7548 10.894 10.9151 10.4867 10.9151 10.01C10.9151 9.516 10.7548 9.10867 10.4341 8.788C10.1221 8.45867 9.71914 8.294 9.22514 8.294C8.47981 8.294 7.94247 8.61033 7.61314 9.243L6.32614 8.84L7.31414 3.77H11.7081V5.161H8.43214L8.00314 7.371C8.38447 7.10233 8.86547 6.968 9.44614 6.968C10.3128 6.968 11.0148 7.267 11.5521 7.865C12.0895 8.463 12.3581 9.22567 12.3581 10.153C12.3581 11.0197 12.0591 11.7347 11.4611 12.298C10.8718 12.8527 10.1135 13.13 9.18614 13.13ZM14.6653 13.104C14.362 13.104 14.0977 12.9957 13.8723 12.779C13.6557 12.5537 13.5473 12.285 13.5473 11.973C13.5473 11.6697 13.6557 11.4053 13.8723 11.18C14.0977 10.9547 14.362 10.842 14.6653 10.842C14.9773 10.842 15.2417 10.9547 15.4583 11.18C15.6837 11.4053 15.7963 11.6697 15.7963 11.973C15.7963 12.285 15.6837 12.5537 15.4583 12.779C15.2417 12.9957 14.9773 13.104 14.6653 13.104ZM22.8018 12.142C22.1778 12.8007 21.3761 13.13 20.3968 13.13C19.4175 13.13 18.6158 12.8007 17.9918 12.142C17.3678 11.4747 17.0558 10.621 17.0558 9.581V7.163C17.0558 6.123 17.3678 5.27367 17.9918 4.615C18.6158 3.94767 19.4175 3.614 20.3968 3.614C21.3761 3.614 22.1778 3.94767 22.8018 4.615C23.4345 5.27367 23.7508 6.123 23.7508 7.163V9.581C23.7508 10.621 23.4345 11.4747 22.8018 12.142ZM20.3968 11.726C20.9775 11.726 21.4411 11.5353 21.7878 11.154C22.1431 10.7727 22.3208 10.2483 22.3208 9.581V7.163C22.3208 6.49567 22.1431 5.97133 21.7878 5.59C21.4411 5.20867 20.9775 5.018 20.3968 5.018C19.8248 5.018 19.3611 5.20867 19.0058 5.59C18.6591 5.97133 18.4858 6.49567 18.4858 7.163V9.581C18.4858 10.2483 18.6591 10.7727 19.0058 11.154C19.3611 11.5353 19.8248 11.726 20.3968 11.726ZM31.0045 12.142C30.3805 12.8007 29.5788 13.13 28.5995 13.13C27.6202 13.13 26.8185 12.8007 26.1945 12.142C25.5705 11.4747 25.2585 10.621 25.2585 9.581V7.163C25.2585 6.123 25.5705 5.27367 26.1945 4.615C26.8185 3.94767 27.6202 3.614 28.5995 3.614C29.5788 3.614 30.3805 3.94767 31.0045 4.615C31.6372 5.27367 31.9535 6.123 31.9535 7.163V9.581C31.9535 10.621 31.6372 11.4747 31.0045 12.142ZM28.5995 11.726C29.1802 11.726 29.6438 11.5353 29.9905 11.154C30.3458 10.7727 30.5235 10.2483 30.5235 9.581V7.163C30.5235 6.49567 30.3458 5.97133 29.9905 5.59C29.6438 5.20867 29.1802 5.018 28.5995 5.018C28.0275 5.018 27.5638 5.20867 27.2085 5.59C26.8618 5.97133 26.6885 6.49567 26.6885 7.163V9.581C26.6885 10.2483 26.8618 10.7727 27.2085 11.154C27.5638 11.5353 28.0275 11.726 28.5995 11.726ZM39.2072 12.142C38.5832 12.8007 37.7815 13.13 36.8022 13.13C35.8229 13.13 35.0212 12.8007 34.3972 12.142C33.7732 11.4747 33.4612 10.621 33.4612 9.581V7.163C33.4612 6.123 33.7732 5.27367 34.3972 4.615C35.0212 3.94767 35.8229 3.614 36.8022 3.614C37.7815 3.614 38.5832 3.94767 39.2072 4.615C39.8399 5.27367 40.1562 6.123 40.1562 7.163V9.581C40.1562 10.621 39.8399 11.4747 39.2072 12.142ZM36.8022 11.726C37.3829 11.726 37.8465 11.5353 38.1932 11.154C38.5485 10.7727 38.7262 10.2483 38.7262 9.581V7.163C38.7262 6.49567 38.5485 5.97133 38.1932 5.59C37.8465 5.20867 37.3829 5.018 36.8022 5.018C36.2302 5.018 35.7665 5.20867 35.4112 5.59C35.0645 5.97133 34.8912 6.49567 34.8912 7.163V9.581C34.8912 10.2483 35.0645 10.7727 35.4112 11.154C35.7665 11.5353 36.2302 11.726 36.8022 11.726ZM47.9605 13.13C46.9811 13.13 46.1665 12.805 45.5165 12.155C44.8751 11.4963 44.5545 10.6947 44.5545 9.75C44.5545 8.80533 44.8751 8.008 45.5165 7.358C46.1665 6.69933 46.9811 6.37 47.9605 6.37C48.8011 6.37 49.5161 6.604 50.1055 7.072C50.7035 7.54 51.0891 8.14233 51.2625 8.879H49.7545C49.6245 8.515 49.3991 8.22467 49.0785 8.008C48.7665 7.78267 48.3938 7.67 47.9605 7.67C47.3885 7.67 46.9205 7.865 46.5565 8.255C46.1925 8.645 46.0105 9.14333 46.0105 9.75C46.0105 10.3567 46.1925 10.855 46.5565 11.245C46.9205 11.635 47.3885 11.83 47.9605 11.83C48.3938 11.83 48.7665 11.7217 49.0785 11.505C49.3991 11.2797 49.6245 10.985 49.7545 10.621H51.2625C51.0891 11.3577 50.7035 11.96 50.1055 12.428C49.5161 12.896 48.8011 13.13 47.9605 13.13ZM58.8561 6.5L55.4761 14.001C55.1901 14.651 54.8564 15.119 54.4751 15.405C54.1024 15.6997 53.6344 15.847 53.0711 15.847C52.7244 15.847 52.4601 15.8253 52.2781 15.782V14.547C52.5381 14.5643 52.7504 14.573 52.9151 14.573C53.3918 14.573 53.7818 14.2567 54.0851 13.624L54.5141 12.675L51.7061 6.5H53.2791L55.3201 11.011L57.2701 6.5H58.8561ZM59.9171 6.5H61.1651L63.4401 9.464L65.7411 6.5H66.9891V13H65.5591V8.749L63.4531 11.479L61.3471 8.749V13H59.9171V6.5Z" fill="#333333"/>
<line y1="8.25" x2="76" y2="8.25" stroke="#F61B58" stroke-width="1.5"/>
</svg>
